<svg width="185" height="18" viewBox="0 0 185 18" fill="none" xmlns="http://www.w3.org/2000/svg">
<g clip-path="url(#clip0_76_50)">
<path d="M13.4185 1.99922H15.1279L8.66465 15.9992H7.84503L0.983643 1.99922H4.00453C3.62985 2.67922 3.81719 3.37922 4.26212 4.25922L8.852 13.7192L13.0906 4.55922C13.559 3.53922 13.676 2.67922 13.4185 1.99922ZM25.9356 10.3992V10.7392H17.3179V10.8992C17.3179 13.6192 18.6058 15.6192 21.1818 15.6192C22.9381 15.6192 23.8982 14.6792 24.5071 13.3992L25.7951 14.1192C25.1628 15.1592 23.5938 16.1792 21.1115 16.1792C17.4115 16.1792 15.3039 13.8592 15.3039 10.8992C15.3039 7.81922 17.5286 5.63922 20.8071 5.63922C24.0856 5.63922 25.9356 7.73922 25.9356 10.3992ZM20.8071 6.17922C18.84 6.17922 17.552 7.65922 17.3413 10.1792H24.1324C24.1324 7.87922 22.8913 6.17922 20.8071 6.17922ZM29.5296 3.75922C29.5296 2.87922 29.3657 2.11922 29.0847 1.19922H31.4499V13.4392C31.4499 14.3192 31.6138 15.0592 31.8714 15.9992H29.0847C29.4125 14.9592 29.5296 14.2392 29.5296 13.4392V3.75922ZM43.9206 5.79922H45.6301L40.3611 15.9992H39.7288L34.3662 5.79922H37.3168C37.0592 6.45922 37.2934 7.37922 37.7149 8.23922L40.7124 14.0192L43.5459 8.41922C44.0845 7.37922 44.4124 6.59922 43.9206 5.79922ZM57.5861 10.3992V10.7392H48.9684V10.8992C48.9684 13.6192 50.2564 15.6192 52.8324 15.6192C54.5887 15.6192 55.5488 14.6792 56.1577 13.3992L57.4456 14.1192C56.8134 15.1592 55.2444 16.1792 52.7621 16.1792C49.0621 16.1792 46.9545 13.8592 46.9545 10.8992C46.9545 7.81922 49.1792 5.63922 52.4577 5.63922C55.7361 5.63922 57.5861 7.73922 57.5861 10.3992ZM52.4577 6.17922C50.4906 6.17922 49.2026 7.65922 48.9918 10.1792H55.783C55.783 7.87922 54.5418 6.17922 52.4577 6.17922ZM67.1517 14.5192L67.9479 15.0992C67.1985 15.7992 66.2384 16.1792 64.9973 16.1792C62.8428 16.1792 61.5783 15.0592 61.5783 12.9992V6.35922H59.6346V5.79922H61.5783V3.71922L63.4985 3.27922V5.79922H67.339V6.35922H63.4985V13.1992C63.4985 14.6192 63.9903 15.6192 65.3251 15.6192C65.9574 15.6192 66.5428 15.3992 67.1517 14.5192ZM82.61 1.99922H84.2961C83.9682 3.13922 83.8511 3.89922 83.8511 4.67922V10.6392C83.8511 14.2792 81.2283 16.1792 77.6923 16.1792C74.1562 16.1792 70.9714 14.2792 70.9714 10.6392V4.67922C70.9714 3.87922 70.8309 3.11922 70.5264 1.99922H73.4302C73.1024 3.13922 72.9853 3.89922 72.9853 4.67922V10.6392C72.9853 13.8592 75.21 15.4992 78.0435 15.4992C80.8536 15.4992 83.0549 13.8592 83.0549 10.6392V4.67922C83.0549 3.87922 82.9144 3.11922 82.61 1.99922ZM100.559 1.99922L94.6811 8.65922L100.817 15.9992H97.7722C97.7488 15.2592 97.2336 14.4592 96.6014 13.6992L93.0887 9.47922L89.3653 13.8792C88.6862 14.6592 88.3817 15.3192 88.4286 15.9992H86.6722L92.6438 8.93922L86.8596 1.99922H89.9039C89.8102 2.57922 90.1147 3.15922 90.7001 3.87922L94.2596 8.13922L97.7722 4.17922C98.4279 3.45922 98.8495 2.71922 98.8026 1.99922H100.559Z" fill="#181E1F"/>
<path d="M110.063 1V17" stroke="#181E1F" stroke-width="0.4"/>
<path d="M108.892 17H111.234" stroke="#181E1F" stroke-width="0.2"/>
<path d="M108.892 1H111.234" stroke="#181E1F" stroke-width="0.2"/>
<path d="M120.571 2.80055C121.695 2.80055 122.397 3.28655 122.397 4.06055C122.397 4.84655 121.695 5.34455 120.571 5.34455H119.658V6.19655C119.658 6.43055 119.693 6.65855 119.784 7.00055H118.92C119.011 6.66455 119.046 6.43655 119.046 6.19655V3.60455C119.046 3.36455 119.011 3.13655 118.92 2.80055H120.571ZM119.658 5.17655H120.402C121.231 5.17655 121.751 4.75055 121.751 4.07255C121.751 3.40655 121.231 2.96855 120.402 2.96855H119.658V5.17655ZM124.963 3.89255C125.131 3.89255 125.293 3.91655 125.441 3.96455L125.279 4.42055C125.174 4.34855 125.012 4.28255 124.78 4.28255C124.211 4.28255 123.839 4.71455 123.839 5.37455V6.23255C123.839 6.49655 123.888 6.71855 123.965 7.00055H123.129C123.228 6.68855 123.263 6.47255 123.263 6.23255V3.94055H123.53L123.79 4.75655C123.965 4.22255 124.38 3.89255 124.963 3.89255ZM127.618 7.05455C126.614 7.05455 125.904 6.35855 125.904 5.47055C125.904 4.58255 126.614 3.89255 127.618 3.89255C128.623 3.89255 129.333 4.58255 129.333 5.47055C129.333 6.35855 128.623 7.05455 127.618 7.05455ZM127.618 6.88655C128.286 6.88655 128.728 6.29255 128.728 5.47055C128.728 4.64855 128.286 4.05455 127.618 4.05455C126.951 4.05455 126.515 4.64855 126.515 5.47055C126.515 6.29255 126.951 6.88655 127.618 6.88655ZM132.739 2.56055H133.441V6.99455H133.181L132.914 6.15455C132.718 6.70055 132.261 7.05455 131.601 7.05455C130.708 7.05455 130.034 6.37655 130.034 5.47055C130.034 4.56455 130.708 3.89255 131.601 3.89255C132.212 3.89255 132.647 4.19855 132.865 4.67255V3.32855C132.865 3.06455 132.816 2.83655 132.739 2.56055ZM131.762 6.86855C132.43 6.86855 132.865 6.29255 132.865 5.47055C132.865 4.64855 132.43 4.07255 131.762 4.07255C131.095 4.07255 130.645 4.64855 130.645 5.47055C130.645 6.29255 131.095 6.86855 131.762 6.86855ZM136.92 3.94055H137.63V7.00055H137.363L137.103 6.19055C136.941 6.71855 136.484 7.05455 135.852 7.05455C135.171 7.05455 134.637 6.67055 134.637 5.86055V4.70855C134.637 4.45055 134.581 4.21655 134.503 3.94055H135.213V5.88455C135.213 6.55655 135.585 6.85655 136.063 6.85655C136.639 6.85655 137.053 6.37055 137.053 5.72255V4.70855C137.053 4.45055 136.997 4.21655 136.92 3.94055ZM141.365 6.13655L141.744 6.32255C141.519 6.74855 141.006 7.05455 140.318 7.05455C139.285 7.05455 138.569 6.35855 138.569 5.47055C138.569 4.58255 139.292 3.89255 140.353 3.89255C140.887 3.89255 141.442 4.07855 141.667 4.47455L141.259 4.68455C141.133 4.31855 140.831 4.05455 140.367 4.05455C139.622 4.05455 139.18 4.65455 139.18 5.47055C139.18 6.28655 139.601 6.88655 140.332 6.88655C140.831 6.88655 141.182 6.61655 141.365 6.13655ZM144.6 6.55655L144.839 6.73055C144.614 6.94055 144.326 7.05455 143.953 7.05455C143.307 7.05455 142.928 6.71855 142.928 6.10055V4.10855H142.345V3.94055H142.928V3.31655L143.504 3.18455V3.94055H144.656V4.10855H143.504V6.16055C143.504 6.58655 143.651 6.88655 144.052 6.88655C144.241 6.88655 144.417 6.82055 144.6 6.55655ZM149.221 2.80055C150.697 2.80055 151.736 3.61655 151.736 4.88855C151.736 6.16055 150.697 7.00055 149.221 7.00055H147.577C147.669 6.66455 147.704 6.43655 147.704 6.19655V3.60455C147.704 3.36455 147.669 3.13655 147.577 2.80055H149.221ZM148.315 6.83255H149.207C150.373 6.83255 151.097 6.05855 151.097 4.88855C151.097 3.72455 150.373 2.96855 149.207 2.96855H148.315V6.83255ZM155.713 5.32055V5.42255H153.127V5.47055C153.127 6.28655 153.514 6.88655 154.287 6.88655C154.813 6.88655 155.101 6.60455 155.284 6.22055L155.671 6.43655C155.481 6.74855 155.01 7.05455 154.265 7.05455C153.155 7.05455 152.523 6.35855 152.523 5.47055C152.523 4.54655 153.191 3.89255 154.174 3.89255C155.158 3.89255 155.713 4.52255 155.713 5.32055ZM154.174 4.05455C153.584 4.05455 153.198 4.49855 153.134 5.25455H155.172C155.172 4.56455 154.799 4.05455 154.174 4.05455ZM157.776 7.05455C157.094 7.05455 156.581 6.77255 156.357 6.46055L156.743 6.21455C156.961 6.59255 157.27 6.88655 157.769 6.88655C158.218 6.88655 158.542 6.65855 158.542 6.29855C158.542 5.45255 156.631 5.80055 156.631 4.73255C156.631 4.14455 157.221 3.89255 157.888 3.89255C158.436 3.89255 158.865 4.07255 159.09 4.30655L158.661 4.58255C158.549 4.30655 158.338 4.05455 157.909 4.05455C157.53 4.05455 157.207 4.22855 157.207 4.58855C157.207 5.44655 159.118 5.11055 159.118 6.15455C159.118 6.77255 158.478 7.05455 157.776 7.05455ZM160.503 3.37055C160.278 3.37055 160.116 3.23255 160.116 3.04055C160.116 2.84855 160.278 2.71655 160.503 2.71655C160.728 2.71655 160.889 2.84855 160.889 3.04055C160.889 3.23255 160.728 3.37055 160.503 3.37055ZM160.215 4.70855C160.215 4.45055 160.166 4.21655 160.081 3.94055H160.791V6.23255C160.791 6.49655 160.84 6.71855 160.917 7.00055H160.081C160.18 6.68855 160.215 6.47255 160.215 6.23255V4.70855ZM164.596 4.74455L164.849 3.94055H165.109V6.77855C165.109 7.71455 164.526 8.37455 163.381 8.37455C162.643 8.37455 162.088 8.09855 161.842 7.63055L162.348 7.47455C162.51 7.86455 162.756 8.20655 163.381 8.20655C164.21 8.20655 164.533 7.65455 164.533 6.83855V6.32855C164.308 6.77255 163.887 7.05455 163.297 7.05455C162.404 7.05455 161.73 6.37655 161.73 5.47055C161.73 4.56455 162.404 3.89255 163.297 3.89255C163.943 3.89255 164.385 4.22855 164.596 4.74455ZM163.458 6.86855C164.125 6.86855 164.561 6.29255 164.561 5.47055C164.561 4.64855 164.125 4.07255 163.458 4.07255C162.791 4.07255 162.341 4.64855 162.341 5.47055C162.341 6.29255 162.791 6.86855 163.458 6.86855ZM168.946 6.23255V5.05655C168.946 4.39055 168.539 4.08455 168.047 4.08455C167.365 4.08455 166.965 4.67255 166.965 5.27255V6.23255C166.965 6.49655 167.014 6.71855 167.091 7.00055H166.255C166.354 6.68855 166.389 6.47255 166.389 6.23255V3.94055H166.656L166.909 4.72655C167.098 4.24655 167.562 3.89255 168.243 3.89255C168.953 3.89255 169.522 4.27655 169.522 5.08055V6.23255C169.522 6.49655 169.571 6.71855 169.649 7.00055H168.813C168.911 6.68855 168.946 6.47255 168.946 6.23255Z" fill="#181E1F"/>
<path d="M120.915 11.9685H119.658V13.7565L121.442 13.7145V13.9665L119.658 13.9245V15.1965C119.658 15.4305 119.693 15.6585 119.784 16.0005H118.92C119.011 15.6645 119.046 15.4365 119.046 15.1965V12.6045C119.046 12.3645 119.011 12.1365 118.92 11.8005H121.955V12.1605C121.688 12.0585 121.393 11.9685 120.915 11.9685ZM124.359 12.8925C124.527 12.8925 124.689 12.9165 124.836 12.9645L124.675 13.4205C124.569 13.3485 124.408 13.2825 124.176 13.2825C123.607 13.2825 123.235 13.7145 123.235 14.3745V15.2325C123.235 15.4965 123.284 15.7185 123.361 16.0005H122.525C122.623 15.6885 122.659 15.4725 122.659 15.2325V12.9405H122.926L123.185 13.7565C123.361 13.2225 123.776 12.8925 124.359 12.8925ZM127.014 16.0545C126.01 16.0545 125.3 15.3585 125.3 14.4705C125.3 13.5825 126.01 12.8925 127.014 12.8925C128.019 12.8925 128.728 13.5825 128.728 14.4705C128.728 15.3585 128.019 16.0545 127.014 16.0545ZM127.014 15.8865C127.682 15.8865 128.124 15.2925 128.124 14.4705C128.124 13.6485 127.682 13.0545 127.014 13.0545C126.347 13.0545 125.911 13.6485 125.911 14.4705C125.911 15.2925 126.347 15.8865 127.014 15.8865ZM132.296 15.2325V14.0565C132.296 13.3905 131.889 13.0845 131.397 13.0845C130.715 13.0845 130.315 13.6725 130.315 14.2725V15.2325C130.315 15.4965 130.364 15.7185 130.441 16.0005H129.605C129.704 15.6885 129.739 15.4725 129.739 15.2325V12.9405H130.006L130.259 13.7265C130.448 13.2465 130.912 12.8925 131.594 12.8925C132.303 12.8925 132.872 13.2765 132.872 14.0805V15.2325C132.872 15.4965 132.921 15.7185 132.999 16.0005H132.163C132.261 15.6885 132.296 15.4725 132.296 15.2325ZM135.914 15.5565L136.153 15.7305C135.928 15.9405 135.64 16.0545 135.268 16.0545C134.622 16.0545 134.242 15.7185 134.242 15.1005V13.1085H133.659V12.9405H134.242V12.3165L134.818 12.1845V12.9405H135.97V13.1085H134.818V15.1605C134.818 15.5865 134.966 15.8865 135.366 15.8865C135.556 15.8865 135.732 15.8205 135.914 15.5565ZM139.817 14.3205V14.4225H137.231V14.4705C137.231 15.2865 137.618 15.8865 138.391 15.8865C138.917 15.8865 139.206 15.6045 139.388 15.2205L139.775 15.4365C139.585 15.7485 139.114 16.0545 138.37 16.0545C137.26 16.0545 136.627 15.3585 136.627 14.4705C136.627 13.5465 137.295 12.8925 138.278 12.8925C139.262 12.8925 139.817 13.5225 139.817 14.3205ZM138.278 13.0545C137.688 13.0545 137.302 13.4985 137.238 14.2545H139.276C139.276 13.5645 138.903 13.0545 138.278 13.0545ZM143.452 15.2325V14.0565C143.452 13.3905 143.045 13.0845 142.553 13.0845C141.872 13.0845 141.471 13.6725 141.471 14.2725V15.2325C141.471 15.4965 141.52 15.7185 141.598 16.0005H140.762C140.86 15.6885 140.895 15.4725 140.895 15.2325V12.9405H141.162L141.415 13.7265C141.605 13.2465 142.068 12.8925 142.75 12.8925C143.459 12.8925 144.028 13.2765 144.028 14.0805V15.2325C144.028 15.4965 144.078 15.7185 144.155 16.0005H143.319C143.417 15.6885 143.452 15.4725 143.452 15.2325ZM147.675 11.5605H148.377V15.9945H148.117L147.85 15.1545C147.653 15.7005 147.197 16.0545 146.536 16.0545C145.644 16.0545 144.97 15.3765 144.97 14.4705C144.97 13.5645 145.644 12.8925 146.536 12.8925C147.148 12.8925 147.583 13.1985 147.801 13.6725V12.3285C147.801 12.0645 147.752 11.8365 147.675 11.5605ZM146.698 15.8685C147.365 15.8685 147.801 15.2925 147.801 14.4705C147.801 13.6485 147.365 13.0725 146.698 13.0725C146.031 13.0725 145.581 13.6485 145.581 14.4705C145.581 15.2925 146.031 15.8685 146.698 15.8685ZM153.152 11.8005C154.627 11.8005 155.667 12.6165 155.667 13.8885C155.667 15.1605 154.627 16.0005 153.152 16.0005H151.508C151.599 15.6645 151.634 15.4365 151.634 15.1965V12.6045C151.634 12.3645 151.599 12.1365 151.508 11.8005H153.152ZM152.246 15.8325H153.138C154.304 15.8325 155.028 15.0585 155.028 13.8885C155.028 12.7245 154.304 11.9685 153.138 11.9685H152.246V15.8325ZM159.643 14.3205V14.4225H157.058V14.4705C157.058 15.2865 157.444 15.8865 158.217 15.8865C158.744 15.8865 159.032 15.6045 159.215 15.2205L159.601 15.4365C159.411 15.7485 158.941 16.0545 158.196 16.0545C157.086 16.0545 156.454 15.3585 156.454 14.4705C156.454 13.5465 157.121 12.8925 158.105 12.8925C159.088 12.8925 159.643 13.5225 159.643 14.3205ZM158.105 13.0545C157.515 13.0545 157.128 13.4985 157.065 14.2545H159.102C159.102 13.5645 158.73 13.0545 158.105 13.0545ZM163.035 12.9405H163.548L161.968 16.0005H161.778L160.169 12.9405H161.054C160.977 13.1385 161.047 13.4145 161.174 13.6725L162.073 15.4065L162.923 13.7265C163.085 13.4145 163.183 13.1805 163.035 12.9405ZM167.136 14.3205V14.4225H164.551V14.4705C164.551 15.2865 164.937 15.8865 165.71 15.8865C166.237 15.8865 166.525 15.6045 166.707 15.2205L167.094 15.4365C166.904 15.7485 166.433 16.0545 165.689 16.0545C164.579 16.0545 163.946 15.3585 163.946 14.4705C163.946 13.5465 164.614 12.8925 165.597 12.8925C166.581 12.8925 167.136 13.5225 167.136 14.3205ZM165.597 13.0545C165.007 13.0545 164.621 13.4985 164.558 14.2545H166.595C166.595 13.5645 166.223 13.0545 165.597 13.0545ZM168.214 12.3285C168.214 12.0645 168.165 11.8365 168.081 11.5605H168.79V15.2325C168.79 15.4965 168.839 15.7185 168.917 16.0005H168.081C168.179 15.6885 168.214 15.4725 168.214 15.2325V12.3285ZM171.513 16.0545C170.508 16.0545 169.798 15.3585 169.798 14.4705C169.798 13.5825 170.508 12.8925 171.513 12.8925C172.517 12.8925 173.227 13.5825 173.227 14.4705C173.227 15.3585 172.517 16.0545 171.513 16.0545ZM171.513 15.8865C172.18 15.8865 172.623 15.2925 172.623 14.4705C172.623 13.6485 172.18 13.0545 171.513 13.0545C170.845 13.0545 170.41 13.6485 170.41 14.4705C170.41 15.2925 170.845 15.8865 171.513 15.8865ZM176.078 12.8925C176.97 12.8925 177.645 13.5645 177.645 14.4705C177.645 15.3765 176.97 16.0545 176.078 16.0545C175.467 16.0545 175.031 15.7485 174.813 15.2685V16.5525C174.813 16.8165 174.863 17.0385 174.94 17.3205H174.104C174.202 17.0085 174.237 16.7925 174.237 16.5525V12.9405H174.504L174.771 13.7745C174.975 13.2405 175.425 12.8925 176.078 12.8925ZM175.916 15.8685C176.591 15.8685 177.033 15.2925 177.033 14.4705C177.033 13.6485 176.591 13.0725 175.916 13.0725C175.249 13.0725 174.813 13.6485 174.813 14.4705C174.813 15.2925 175.249 15.8685 175.916 15.8685ZM181.537 14.3205V14.4225H178.951V14.4705C178.951 15.2865 179.338 15.8865 180.11 15.8865C180.637 15.8865 180.925 15.6045 181.108 15.2205L181.494 15.4365C181.305 15.7485 180.834 16.0545 180.089 16.0545C178.979 16.0545 178.347 15.3585 178.347 14.4705C178.347 13.5465 179.014 12.8925 179.998 12.8925C180.982 12.8925 181.537 13.5225 181.537 14.3205ZM179.998 13.0545C179.408 13.0545 179.021 13.4985 178.958 14.2545H180.996C180.996 13.5645 180.623 13.0545 179.998 13.0545ZM184.314 12.8925C184.483 12.8925 184.644 12.9165 184.792 12.9645L184.63 13.4205C184.525 13.3485 184.363 13.2825 184.131 13.2825C183.562 13.2825 183.19 13.7145 183.19 14.3745V15.2325C183.19 15.4965 183.239 15.7185 183.316 16.0005H182.48C182.579 15.6885 182.614 15.4725 182.614 15.2325V12.9405H182.881L183.141 13.7565C183.316 13.2225 183.731 12.8925 184.314 12.8925Z" fill="#181E1F"/>
</g>
<defs>
<clipPath id="clip0_76_50">
<rect width="185" height="18" fill="white"/>
</clipPath>
</defs>
</svg>
