<svg width="52" height="18" viewBox="0 0 52 18" fill="none" xmlns="http://www.w3.org/2000/svg">
<path d="M13.5045 2H15.2235L8.5 16H8L1 2H4.03781C3.66103 2.67137 3.84942 3.36248 4.29685 4.23131L8.91244 13.5712L13.1748 4.5275C13.6458 3.52045 13.7635 2.67137 13.5045 2ZM32.6914 2.00023H34.3869C34.0573 3.12576 33.9395 3.87607 33.9395 4.64617V10.5304C33.9395 14.1242 31.302 16 27.7462 16C24.1903 16 20.9876 14.1242 20.9876 10.5304V4.64617C20.9876 3.85632 20.8463 3.10601 20.5402 2.00023H23.4602C23.1306 3.12576 23.0128 3.87607 23.0128 4.64617V10.5304C23.0128 13.7095 25.25 15.3286 28.0994 15.3286C30.9252 15.3286 33.1388 13.7095 33.1388 10.5304V4.64617C33.1388 3.85632 32.9976 3.10601 32.6914 2.00023ZM50.741 2.00023L44.8302 8.57558L51 16H48C47.9765 15.2694 47.397 14.3019 46.7612 13.5515L43.2289 9.38516L39.4846 13.7292C38.8017 14.4993 38.4529 15.3286 38.5 16H36.5L42.7814 8.85202L36.9648 2.00023H40.0262C39.932 2.57287 40.2381 3.14548 40.8269 3.85634L44.4063 8.06219L47.9386 4.15252C48.598 3.44166 49.0219 2.71109 48.9748 2.00023H50.741Z" fill="white"/>
<circle cx="13" cy="15" r="1" fill="white"/>
</svg>
