<svg width="158" height="18" viewBox="0 0 158 18" fill="none" xmlns="http://www.w3.org/2000/svg">
<path d="M11.46 2H12.92L7.4 16H6.7L0.84 2H3.42C3.1 2.68 3.26 3.38 3.64 4.26L7.56 13.72L11.18 4.56C11.58 3.54 11.68 2.68 11.46 2ZM22.1503 10.4V10.74H14.7903V10.9C14.7903 13.62 15.8903 15.62 18.0903 15.62C19.5903 15.62 20.4103 14.68 20.9303 13.4L22.0303 14.12C21.4903 15.16 20.1503 16.18 18.0303 16.18C14.8703 16.18 13.0703 13.86 13.0703 10.9C13.0703 7.82 14.9703 5.64 17.7703 5.64C20.5703 5.64 22.1503 7.74 22.1503 10.4ZM17.7703 6.18C16.0903 6.18 14.9903 7.66 14.8103 10.18H20.6103C20.6103 7.88 19.5503 6.18 17.7703 6.18ZM25.2198 3.76C25.2198 2.88 25.0798 2.12 24.8398 1.2H26.8598V13.44C26.8598 14.32 26.9998 15.06 27.2198 16H24.8398C25.1198 14.96 25.2198 14.24 25.2198 13.44V3.76ZM37.5105 5.8H38.9705L34.4705 16H33.9305L29.3505 5.8H31.8705C31.6505 6.46 31.8505 7.38 32.2105 8.24L34.7705 14.02L37.1905 8.42C37.6505 7.38 37.9305 6.6 37.5105 5.8ZM49.1816 10.4V10.74H41.8216V10.9C41.8216 13.62 42.9216 15.62 45.1216 15.62C46.6216 15.62 47.4416 14.68 47.9616 13.4L49.0616 14.12C48.5216 15.16 47.1816 16.18 45.0616 16.18C41.9016 16.18 40.1016 13.86 40.1016 10.9C40.1016 7.82 42.0016 5.64 44.8016 5.64C47.6016 5.64 49.1816 7.74 49.1816 10.4ZM44.8016 6.18C43.1216 6.18 42.0216 7.66 41.8416 10.18H47.6416C47.6416 7.88 46.5816 6.18 44.8016 6.18ZM57.3511 14.52L58.0311 15.1C57.3911 15.8 56.5711 16.18 55.5111 16.18C53.6711 16.18 52.5911 15.06 52.5911 13V6.36H50.9311V5.8H52.5911V3.72L54.2311 3.28V5.8H57.5111V6.36H54.2311V13.2C54.2311 14.62 54.6511 15.62 55.7911 15.62C56.3311 15.62 56.8311 15.4 57.3511 14.52ZM70.5533 2H71.9933C71.7133 3.14 71.6133 3.9 71.6133 4.68V10.64C71.6133 14.28 69.3733 16.18 66.3533 16.18C63.3333 16.18 60.6133 14.28 60.6133 10.64V4.68C60.6133 3.88 60.4933 3.12 60.2333 2H62.7133C62.4333 3.14 62.3333 3.9 62.3333 4.68V10.64C62.3333 13.86 64.2333 15.5 66.6533 15.5C69.0533 15.5 70.9333 13.86 70.9333 10.64V4.68C70.9333 3.88 70.8133 3.12 70.5533 2ZM85.8827 2L80.8627 8.66L86.1027 16H83.5027C83.4827 15.26 83.0427 14.46 82.5027 13.7L79.5027 9.48L76.3227 13.88C75.7427 14.66 75.4827 15.32 75.5227 16H74.0227L79.1227 8.94L74.1827 2H76.7827C76.7027 2.58 76.9627 3.16 77.4627 3.88L80.5027 8.14L83.5027 4.18C84.0627 3.46 84.4227 2.72 84.3827 2H85.8827Z" fill="white"/>
<path d="M94 1V17" stroke="white" stroke-width="0.4"/>
<path d="M93 17H95" stroke="white" stroke-width="0.2"/>
<path d="M93 1H95" stroke="white" stroke-width="0.2"/>
<path d="M102.974 2.8C103.934 2.8 104.534 3.286 104.534 4.06C104.534 4.846 103.934 5.344 102.974 5.344H102.194V6.196C102.194 6.43 102.224 6.658 102.302 7H101.564C101.642 6.664 101.672 6.436 101.672 6.196V3.604C101.672 3.364 101.642 3.136 101.564 2.8H102.974ZM102.194 5.176H102.83C103.538 5.176 103.982 4.75 103.982 4.072C103.982 3.406 103.538 2.968 102.83 2.968H102.194V5.176ZM106.725 3.892C106.869 3.892 107.007 3.916 107.133 3.964L106.995 4.42C106.905 4.348 106.767 4.282 106.569 4.282C106.083 4.282 105.765 4.714 105.765 5.374V6.232C105.765 6.496 105.807 6.718 105.873 7H105.159C105.243 6.688 105.273 6.472 105.273 6.232V3.94H105.501L105.723 4.756C105.873 4.222 106.227 3.892 106.725 3.892ZM108.993 7.054C108.135 7.054 107.529 6.358 107.529 5.47C107.529 4.582 108.135 3.892 108.993 3.892C109.851 3.892 110.457 4.582 110.457 5.47C110.457 6.358 109.851 7.054 108.993 7.054ZM108.993 6.886C109.563 6.886 109.941 6.292 109.941 5.47C109.941 4.648 109.563 4.054 108.993 4.054C108.423 4.054 108.051 4.648 108.051 5.47C108.051 6.292 108.423 6.886 108.993 6.886ZM113.366 2.56H113.966V6.994H113.744L113.516 6.154C113.348 6.7 112.958 7.054 112.394 7.054C111.632 7.054 111.056 6.376 111.056 5.47C111.056 4.564 111.632 3.892 112.394 3.892C112.916 3.892 113.288 4.198 113.474 4.672V3.328C113.474 3.064 113.432 2.836 113.366 2.56ZM112.532 6.868C113.102 6.868 113.474 6.292 113.474 5.47C113.474 4.648 113.102 4.072 112.532 4.072C111.962 4.072 111.578 4.648 111.578 5.47C111.578 6.292 111.962 6.868 112.532 6.868ZM116.937 3.94H117.543V7H117.315L117.093 6.19C116.955 6.718 116.565 7.054 116.025 7.054C115.443 7.054 114.987 6.67 114.987 5.86V4.708C114.987 4.45 114.939 4.216 114.873 3.94H115.479V5.884C115.479 6.556 115.797 6.856 116.205 6.856C116.697 6.856 117.051 6.37 117.051 5.722V4.708C117.051 4.45 117.003 4.216 116.937 3.94ZM120.733 6.136L121.057 6.322C120.865 6.748 120.427 7.054 119.839 7.054C118.957 7.054 118.345 6.358 118.345 5.47C118.345 4.582 118.963 3.892 119.869 3.892C120.325 3.892 120.799 4.078 120.991 4.474L120.643 4.684C120.535 4.318 120.277 4.054 119.881 4.054C119.245 4.054 118.867 4.654 118.867 5.47C118.867 6.286 119.227 6.886 119.851 6.886C120.277 6.886 120.577 6.616 120.733 6.136ZM123.496 6.556L123.7 6.73C123.508 6.94 123.262 7.054 122.944 7.054C122.392 7.054 122.068 6.718 122.068 6.1V4.108H121.57V3.94H122.068V3.316L122.56 3.184V3.94H123.544V4.108H122.56V6.16C122.56 6.586 122.686 6.886 123.028 6.886C123.19 6.886 123.34 6.82 123.496 6.556ZM127.443 2.8C128.703 2.8 129.591 3.616 129.591 4.888C129.591 6.16 128.703 7 127.443 7H126.039C126.117 6.664 126.147 6.436 126.147 6.196V3.604C126.147 3.364 126.117 3.136 126.039 2.8H127.443ZM126.669 6.832H127.431C128.427 6.832 129.045 6.058 129.045 4.888C129.045 3.724 128.427 2.968 127.431 2.968H126.669V6.832ZM132.987 5.32V5.422H130.779V5.47C130.779 6.286 131.109 6.886 131.769 6.886C132.219 6.886 132.465 6.604 132.621 6.22L132.951 6.436C132.789 6.748 132.387 7.054 131.751 7.054C130.803 7.054 130.263 6.358 130.263 5.47C130.263 4.546 130.833 3.892 131.673 3.892C132.513 3.892 132.987 4.522 132.987 5.32ZM131.673 4.054C131.169 4.054 130.839 4.498 130.785 5.254H132.525C132.525 4.564 132.207 4.054 131.673 4.054ZM134.749 7.054C134.167 7.054 133.729 6.772 133.537 6.46L133.867 6.214C134.053 6.592 134.317 6.886 134.743 6.886C135.127 6.886 135.403 6.658 135.403 6.298C135.403 5.452 133.771 5.8 133.771 4.732C133.771 4.144 134.275 3.892 134.845 3.892C135.313 3.892 135.679 4.072 135.871 4.306L135.505 4.582C135.409 4.306 135.229 4.054 134.863 4.054C134.539 4.054 134.263 4.228 134.263 4.588C134.263 5.446 135.895 5.11 135.895 6.154C135.895 6.772 135.349 7.054 134.749 7.054ZM137.078 3.37C136.886 3.37 136.748 3.232 136.748 3.04C136.748 2.848 136.886 2.716 137.078 2.716C137.27 2.716 137.408 2.848 137.408 3.04C137.408 3.232 137.27 3.37 137.078 3.37ZM136.832 4.708C136.832 4.45 136.79 4.216 136.718 3.94H137.324V6.232C137.324 6.496 137.366 6.718 137.432 7H136.718C136.802 6.688 136.832 6.472 136.832 6.232V4.708ZM140.574 4.744L140.79 3.94H141.012V6.778C141.012 7.714 140.514 8.374 139.536 8.374C138.906 8.374 138.432 8.098 138.222 7.63L138.654 7.474C138.792 7.864 139.002 8.206 139.536 8.206C140.244 8.206 140.52 7.654 140.52 6.838V6.328C140.328 6.772 139.968 7.054 139.464 7.054C138.702 7.054 138.126 6.376 138.126 5.47C138.126 4.564 138.702 3.892 139.464 3.892C140.016 3.892 140.394 4.228 140.574 4.744ZM139.602 6.868C140.172 6.868 140.544 6.292 140.544 5.47C140.544 4.648 140.172 4.072 139.602 4.072C139.032 4.072 138.648 4.648 138.648 5.47C138.648 6.292 139.032 6.868 139.602 6.868ZM144.289 6.232V5.056C144.289 4.39 143.941 4.084 143.521 4.084C142.939 4.084 142.597 4.672 142.597 5.272V6.232C142.597 6.496 142.639 6.718 142.705 7H141.991C142.075 6.688 142.105 6.472 142.105 6.232V3.94H142.333L142.549 4.726C142.711 4.246 143.107 3.892 143.689 3.892C144.295 3.892 144.781 4.276 144.781 5.08V6.232C144.781 6.496 144.823 6.718 144.889 7H144.175C144.259 6.688 144.289 6.472 144.289 6.232Z" fill="white"/>
<path d="M103.268 11.968H102.194V13.756L103.718 13.714V13.966L102.194 13.924V15.196C102.194 15.43 102.224 15.658 102.302 16H101.564C101.642 15.664 101.672 15.436 101.672 15.196V12.604C101.672 12.364 101.642 12.136 101.564 11.8H104.156V12.16C103.928 12.058 103.676 11.968 103.268 11.968ZM106.209 12.892C106.353 12.892 106.491 12.916 106.617 12.964L106.479 13.42C106.389 13.348 106.251 13.282 106.053 13.282C105.567 13.282 105.249 13.714 105.249 14.374V15.232C105.249 15.496 105.291 15.718 105.357 16H104.643C104.727 15.688 104.757 15.472 104.757 15.232V12.94H104.985L105.207 13.756C105.357 13.222 105.711 12.892 106.209 12.892ZM108.477 16.054C107.619 16.054 107.013 15.358 107.013 14.47C107.013 13.582 107.619 12.892 108.477 12.892C109.335 12.892 109.941 13.582 109.941 14.47C109.941 15.358 109.335 16.054 108.477 16.054ZM108.477 15.886C109.047 15.886 109.425 15.292 109.425 14.47C109.425 13.648 109.047 13.054 108.477 13.054C107.907 13.054 107.535 13.648 107.535 14.47C107.535 15.292 107.907 15.886 108.477 15.886ZM112.988 15.232V14.056C112.988 13.39 112.64 13.084 112.22 13.084C111.638 13.084 111.296 13.672 111.296 14.272V15.232C111.296 15.496 111.338 15.718 111.404 16H110.69C110.774 15.688 110.804 15.472 110.804 15.232V12.94H111.032L111.248 13.726C111.41 13.246 111.806 12.892 112.388 12.892C112.994 12.892 113.48 13.276 113.48 14.08V15.232C113.48 15.496 113.522 15.718 113.588 16H112.874C112.958 15.688 112.988 15.472 112.988 15.232ZM116.078 15.556L116.282 15.73C116.09 15.94 115.844 16.054 115.526 16.054C114.974 16.054 114.65 15.718 114.65 15.1V13.108H114.152V12.94H114.65V12.316L115.142 12.184V12.94H116.126V13.108H115.142V15.16C115.142 15.586 115.268 15.886 115.61 15.886C115.772 15.886 115.922 15.82 116.078 15.556ZM119.411 14.32V14.422H117.203V14.47C117.203 15.286 117.533 15.886 118.193 15.886C118.643 15.886 118.889 15.604 119.045 15.22L119.375 15.436C119.213 15.748 118.811 16.054 118.175 16.054C117.227 16.054 116.687 15.358 116.687 14.47C116.687 13.546 117.257 12.892 118.097 12.892C118.937 12.892 119.411 13.522 119.411 14.32ZM118.097 13.054C117.593 13.054 117.263 13.498 117.209 14.254H118.949C118.949 13.564 118.631 13.054 118.097 13.054ZM122.516 15.232V14.056C122.516 13.39 122.168 13.084 121.748 13.084C121.166 13.084 120.824 13.672 120.824 14.272V15.232C120.824 15.496 120.866 15.718 120.932 16H120.218C120.302 15.688 120.332 15.472 120.332 15.232V12.94H120.56L120.776 13.726C120.938 13.246 121.334 12.892 121.916 12.892C122.522 12.892 123.008 13.276 123.008 14.08V15.232C123.008 15.496 123.05 15.718 123.116 16H122.402C122.486 15.688 122.516 15.472 122.516 15.232ZM126.122 11.56H126.722V15.994H126.5L126.272 15.154C126.104 15.7 125.714 16.054 125.15 16.054C124.388 16.054 123.812 15.376 123.812 14.47C123.812 13.564 124.388 12.892 125.15 12.892C125.672 12.892 126.044 13.198 126.23 13.672V12.328C126.23 12.064 126.188 11.836 126.122 11.56ZM125.288 15.868C125.858 15.868 126.23 15.292 126.23 14.47C126.23 13.648 125.858 13.072 125.288 13.072C124.718 13.072 124.334 13.648 124.334 14.47C124.334 15.292 124.718 15.868 125.288 15.868ZM130.8 11.8C132.06 11.8 132.948 12.616 132.948 13.888C132.948 15.16 132.06 16 130.8 16H129.396C129.474 15.664 129.504 15.436 129.504 15.196V12.604C129.504 12.364 129.474 12.136 129.396 11.8H130.8ZM130.026 15.832H130.788C131.784 15.832 132.402 15.058 132.402 13.888C132.402 12.724 131.784 11.968 130.788 11.968H130.026V15.832ZM136.344 14.32V14.422H134.136V14.47C134.136 15.286 134.466 15.886 135.126 15.886C135.576 15.886 135.822 15.604 135.978 15.22L136.308 15.436C136.146 15.748 135.744 16.054 135.108 16.054C134.16 16.054 133.62 15.358 133.62 14.47C133.62 13.546 134.19 12.892 135.03 12.892C135.87 12.892 136.344 13.522 136.344 14.32ZM135.03 13.054C134.526 13.054 134.196 13.498 134.142 14.254H135.882C135.882 13.564 135.564 13.054 135.03 13.054ZM139.241 12.94H139.679L138.329 16H138.167L136.793 12.94H137.549C137.483 13.138 137.543 13.414 137.651 13.672L138.419 15.406L139.145 13.726C139.283 13.414 139.367 13.18 139.241 12.94ZM142.743 14.32V14.422H140.535V14.47C140.535 15.286 140.865 15.886 141.525 15.886C141.975 15.886 142.221 15.604 142.377 15.22L142.707 15.436C142.545 15.748 142.143 16.054 141.507 16.054C140.559 16.054 140.019 15.358 140.019 14.47C140.019 13.546 140.589 12.892 141.429 12.892C142.269 12.892 142.743 13.522 142.743 14.32ZM141.429 13.054C140.925 13.054 140.595 13.498 140.541 14.254H142.281C142.281 13.564 141.963 13.054 141.429 13.054ZM143.664 12.328C143.664 12.064 143.622 11.836 143.55 11.56H144.156V15.232C144.156 15.496 144.198 15.718 144.264 16H143.55C143.634 15.688 143.664 15.472 143.664 15.232V12.328ZM146.481 16.054C145.623 16.054 145.017 15.358 145.017 14.47C145.017 13.582 145.623 12.892 146.481 12.892C147.339 12.892 147.945 13.582 147.945 14.47C147.945 15.358 147.339 16.054 146.481 16.054ZM146.481 15.886C147.051 15.886 147.429 15.292 147.429 14.47C147.429 13.648 147.051 13.054 146.481 13.054C145.911 13.054 145.539 13.648 145.539 14.47C145.539 15.292 145.911 15.886 146.481 15.886ZM150.38 12.892C151.142 12.892 151.718 13.564 151.718 14.47C151.718 15.376 151.142 16.054 150.38 16.054C149.858 16.054 149.486 15.748 149.3 15.268V16.552C149.3 16.816 149.342 17.038 149.408 17.32H148.694C148.778 17.008 148.808 16.792 148.808 16.552V12.94H149.036L149.264 13.774C149.438 13.24 149.822 12.892 150.38 12.892ZM150.242 15.868C150.818 15.868 151.196 15.292 151.196 14.47C151.196 13.648 150.818 13.072 150.242 13.072C149.672 13.072 149.3 13.648 149.3 14.47C149.3 15.292 149.672 15.868 150.242 15.868ZM155.042 14.32V14.422H152.834V14.47C152.834 15.286 153.164 15.886 153.824 15.886C154.274 15.886 154.52 15.604 154.676 15.22L155.006 15.436C154.844 15.748 154.442 16.054 153.806 16.054C152.858 16.054 152.318 15.358 152.318 14.47C152.318 13.546 152.888 12.892 153.728 12.892C154.568 12.892 155.042 13.522 155.042 14.32ZM153.728 13.054C153.224 13.054 152.894 13.498 152.84 14.254H154.58C154.58 13.564 154.262 13.054 153.728 13.054ZM157.414 12.892C157.558 12.892 157.696 12.916 157.822 12.964L157.684 13.42C157.594 13.348 157.456 13.282 157.258 13.282C156.772 13.282 156.454 13.714 156.454 14.374V15.232C156.454 15.496 156.496 15.718 156.562 16H155.848C155.932 15.688 155.962 15.472 155.962 15.232V12.94H156.19L156.412 13.756C156.562 13.222 156.916 12.892 157.414 12.892Z" fill="white"/>
</svg>
